<svg xmlns="http://www.w3.org/2000/svg" viewBox="0 0 512 512">
	<path d="M425.4 178c-86.7 63.5-172 118.4-206 140.7l100.4 72c83-34.7 141.5-117 141.5-212.6h-36z" fill="#FAE8AC"/>
	<path d="M207.4 190.3c-36.4 4.5-204 27.3-204 27.3v-.2.2c18.7 108.6 113.4 191 227.3 191-4.8-64.7-15-187-23.3-218.3z" fill="#FAEAB6"/>
	<path d="M274 329.4l53.6-81.2-53.6-70H0c0 13.3 1.2 26.4 3.4 39.2v.2H128c12.4 0 22.3 10 22.3 22.3 0 6-2.3 11-6.2 15 17 28 43 51 74 63-15 29-11 65.4 13 90 30 29.4 78 29.4 107 0l-80-80c6 .2 11 .5 17 .5z" fill="#4AD0FF"/>
	<path d="M443.4 104s-10.4 28.5-18 45v29H274v67l15 16.6-15 16.6v51.2c83.6 0 151.4-67.7 151.4-151.3h36v-29c29-7 50.6-34 50.6-66-26-5-51.7 4-68.6 22z" fill="#16A5D9"/>
	<path d="M443.4 104c-17-18-42.7-27-68.7-21.2 0 31.7 21.5 58.3 50.7 66.2 5.7 1.6 11.7 2.4 18 2.4V104z" fill="#4AD0FF"/>
	<path d="M340.8 211.5h33.4V245h-33.4zM274 245h33.4v33.3H274z" fill="#99E5FF"/>
</svg>